<svg width="97" height="32" viewBox="0 0 97 32" fill="none" xmlns="http://www.w3.org/2000/svg">
<path d="M6.65619 13.3182C6.14147 13.3182 5.62673 13.1216 5.23264 12.7324C4.44849 11.95 4.44849 10.678 5.23264 9.89563L14.562 0.586816C15.3462 -0.195605 16.6209 -0.195605 17.4051 0.586816C18.1892 1.36924 18.1892 2.64117 17.4051 3.4236L8.07569 12.7324C7.68563 13.1216 7.17091 13.3182 6.65619 13.3182Z" fill="black"/>
<path d="M16.5949 10.6786C15.8108 9.8962 15.8108 8.62426 16.5949 7.84184L19.2611 5.18161C20.0532 4.39116 21.3481 4.39918 22.1323 5.20969C22.9003 6.00415 22.844 7.28411 22.0599 8.06654L19.442 10.6786C18.6538 11.461 17.3791 11.461 16.5949 10.6786Z" fill="black"/>
<path d="M6.59562 22.6629C6.0809 22.6629 5.56618 22.4663 5.1721 22.0771C4.38795 21.2947 4.38795 20.0227 5.1721 19.2403L11.9479 12.4794C12.7321 11.697 14.0068 11.697 14.791 12.4794C15.5751 13.2618 15.5751 14.5338 14.791 15.3162L8.01514 22.0771C7.62508 22.4663 7.11034 22.6629 6.59562 22.6629Z" fill="black"/>
<path d="M11.2294 27.2661C10.7147 27.2661 10.2 27.0695 9.80589 26.6803C9.02174 25.8979 9.02174 24.6259 9.80589 23.8435L12.6851 20.9706C13.4693 20.1882 14.744 20.1882 15.5282 20.9706C16.3123 21.753 16.3123 23.025 15.5282 23.8074L12.6489 26.6803C12.2589 27.0695 11.7442 27.2661 11.2294 27.2661Z" fill="black"/>
<path d="M18.7597 19.7579C18.245 19.7579 17.7302 19.5613 17.3362 19.1721C16.552 18.3896 16.552 17.1177 17.3362 16.3353L23.8989 9.78701C24.683 9.00459 25.9578 9.00459 26.7419 9.78701C27.5261 10.5694 27.5261 11.8414 26.7419 12.6238L20.1792 19.1721C19.7851 19.5613 19.2744 19.7579 18.7597 19.7579Z" fill="black"/>
<path d="M2.00664 17.9443C3.11486 17.9443 4.01325 17.0479 4.01325 15.9421C4.01325 14.8364 3.11486 13.9399 2.00664 13.9399C0.898414 13.9399 0 14.8364 0 15.9421C0 17.0479 0.898414 17.9443 2.00664 17.9443Z" fill="black"/>
<path d="M15.8349 32.0003C15.3202 32.0003 14.8054 31.8037 14.4114 31.4145C13.6272 30.6321 13.6272 29.3601 14.4114 28.5777L23.9056 19.1044C24.6897 18.322 25.9645 18.322 26.7486 19.1044C27.5328 19.8868 27.5328 21.1588 26.7486 21.9412L17.2504 31.4145C16.8643 31.8037 16.3496 32.0003 15.8349 32.0003Z" fill="black"/>
<path d="M29.9627 17.9048C31.0709 17.9048 31.9693 17.0084 31.9693 15.9026C31.9693 14.7968 31.0709 13.9004 29.9627 13.9004C28.8544 13.9004 27.9561 14.7968 27.9561 15.9026C27.9561 17.0084 28.8544 17.9048 29.9627 17.9048Z" fill="black"/>
<path d="M41.6707 20.9854C40.7383 20.4636 40.0316 19.7451 39.5466 18.817C39.0616 17.8932 38.8232 16.8325 38.8232 15.635C38.8232 14.4118 39.0699 13.3468 39.5675 12.4358C40.0651 11.5291 40.7801 10.8277 41.7167 10.3401C42.6492 9.85255 43.7572 9.60449 45.0367 9.60449C46.3078 9.60449 47.4117 9.85255 48.34 10.3444C49.2682 10.8405 49.9832 11.5419 50.4808 12.4487C50.9784 13.3554 51.2251 14.416 51.2251 15.6307C51.2251 16.8496 50.97 17.9231 50.4557 18.8512C49.9414 19.7793 49.218 20.4978 48.2772 21.0025C47.3406 21.5072 46.2535 21.7595 45.02 21.7595C43.7154 21.7638 42.599 21.5072 41.6707 20.9854ZM46.4793 18.4406C46.8807 18.1712 47.1859 17.7905 47.3908 17.3072C47.5957 16.824 47.7002 16.268 47.7002 15.635C47.7002 15.0191 47.5915 14.4759 47.3699 14.0097C47.1483 13.5393 46.8389 13.1757 46.4374 12.9191C46.036 12.6625 45.5719 12.5342 45.0409 12.5342C44.5015 12.5342 44.0248 12.6625 43.6192 12.9191C43.2136 13.1757 42.9 13.5393 42.6826 14.0055C42.4652 14.4716 42.3565 15.0148 42.3565 15.635C42.3565 16.268 42.4652 16.824 42.6826 17.3115C42.9 17.7991 43.2136 18.1755 43.615 18.4449C44.0206 18.7144 44.4889 18.8469 45.0241 18.8469C45.5928 18.8469 46.0779 18.7144 46.4793 18.4406Z" fill="black"/>
<path d="M52.7525 12.2393H55.2487C55.4118 12.2393 55.5539 12.359 55.5832 12.5215L56.269 16.2724C56.3777 16.8755 56.4948 17.641 56.6202 18.5606C56.6913 17.8463 56.8084 17.0893 56.9714 16.2895L57.7199 12.5173C57.7533 12.3547 57.8913 12.2393 58.0544 12.2393H61.0357C61.1988 12.2393 61.3409 12.359 61.3702 12.5215L62.0727 16.2895C62.2106 16.9952 62.3277 17.7522 62.4239 18.5606C62.5075 17.9404 62.633 17.1834 62.8086 16.2895L63.5487 12.5173C63.5821 12.3547 63.7201 12.2393 63.8832 12.2393H66.0909C66.3083 12.2393 66.4714 12.4488 66.4213 12.667L64.4184 21.3277C64.3808 21.486 64.247 21.5972 64.0881 21.5972H60.8893C60.7263 21.5972 60.5883 21.4817 60.5548 21.3149L59.7896 17.3374C59.6767 16.7771 59.5681 16.174 59.4719 15.5197C59.4217 15.9559 59.3213 16.5632 59.1666 17.3374L58.3847 21.3192C58.3513 21.4817 58.2133 21.5972 58.0502 21.5972H54.818C54.6633 21.5972 54.5253 21.486 54.4877 21.332L52.418 12.6712C52.372 12.4531 52.535 12.2393 52.7525 12.2393Z" fill="black"/>
<path d="M68.0933 14.3388C68.0933 13.9496 68.0849 13.5604 68.064 13.1798C68.0514 12.9702 68.0431 12.782 68.0305 12.6152C68.0138 12.4142 68.1685 12.2388 68.3692 12.2388H70.7777C70.9491 12.2388 71.0913 12.3629 71.1164 12.5382C71.1331 12.6751 71.1498 12.8333 71.1707 13.0172C71.2042 13.3551 71.2209 13.6074 71.2209 13.7657H71.2544C71.5721 13.1798 71.9694 12.7478 72.446 12.4741C72.9227 12.2003 73.4997 12.0635 74.1729 12.0635C75.2099 12.0635 75.9709 12.3757 76.4476 13.0001C76.9242 13.6246 77.1667 14.4799 77.1667 15.5706V21.2503C77.1667 21.4428 77.0162 21.5968 76.8281 21.5968H74.3193C74.1311 21.5968 73.9806 21.4428 73.9806 21.2503V16.4987C73.9806 15.9512 73.8886 15.5321 73.7004 15.2455C73.5164 14.959 73.2029 14.8135 72.768 14.8135C72.2871 14.8135 71.9192 14.9803 71.6683 15.3097C71.4174 15.639 71.292 16.1095 71.292 16.7168V21.2503C71.292 21.4428 71.1414 21.5968 70.9533 21.5968H68.4445C68.2563 21.5968 68.1058 21.4428 68.1058 21.2503V14.3388H68.0933Z" fill="black"/>
<path d="M79.6619 9.78418H82.3338C82.522 9.78418 82.6725 9.93815 82.6725 10.1306V21.2506C82.6725 21.4431 82.522 21.5971 82.3338 21.5971H79.6619C79.4738 21.5971 79.3232 21.4431 79.3232 21.2506V10.1306C79.3232 9.93815 79.478 9.78418 79.6619 9.78418Z" fill="black"/>
<path d="M85.0771 10.1306C85.0771 9.93815 85.2277 9.78418 85.4158 9.78418H89.8731C91.9053 9.78418 93.4565 10.2632 94.5311 11.217C95.6016 12.1707 96.1368 13.6334 96.1368 15.6008C96.1368 16.8711 95.8859 17.9531 95.38 18.8556C94.874 19.7537 94.1632 20.438 93.2391 20.8999C92.3192 21.3618 91.2488 21.5971 90.0278 21.5971H85.4158C85.2277 21.5971 85.0771 21.4431 85.0771 21.2506V10.1306ZM89.8731 18.7486C90.7972 18.7486 91.4955 18.4835 91.9764 17.9531C92.453 17.4228 92.6955 16.6529 92.6955 15.6393C92.6955 14.6727 92.4572 13.9285 91.9847 13.411C91.5122 12.8935 90.793 12.6369 89.823 12.6369H88.4306V18.7486H89.8731Z" fill="black"/>
</svg>
